<svg width="121" height="28" viewBox="0 0 121 28" fill="none" xmlns="http://www.w3.org/2000/svg">
<path d="M31.2153 0.799927H0.415283L4.81528 9.59987H31.2153C36.0754 9.59987 40.0153 13.5397 40.0153 18.3998C40.0153 23.2599 36.0754 27.1998 31.2153 27.1998C38.5054 27.1998 44.4153 21.29 44.4153 13.9998C44.4153 6.70973 38.5054 0.799927 31.2153 0.799927Z" fill="#099250"/>
<path opacity="0.3" d="M21.1988 24.7677C19.736 21.8422 21.8634 18.4 25.1342 18.4H31.2149C33.645 18.4 35.6149 20.37 35.6149 22.8C35.6149 25.23 33.645 27.2 31.2149 27.2H25.1342C23.4676 27.2 21.9441 26.2584 21.1988 24.7677Z" fill="#099250"/>
<path opacity="0.6" d="M31.2161 9.60022H9.21606L13.6161 18.4002H31.2161C33.6461 18.4002 35.6161 20.3701 35.6161 22.8001C35.6161 25.2302 33.6461 27.2001 31.2161 27.2001C36.0762 27.2001 40.0161 23.2602 40.0161 18.4002C40.0161 13.5401 36.0762 9.60022 31.2161 9.60022Z" fill="#099250"/>
<path d="M120.585 21.992C120.313 22.104 119.985 22.232 119.601 22.376C119.217 22.52 118.801 22.632 118.353 22.712C117.921 22.808 117.481 22.856 117.033 22.856C116.441 22.856 115.897 22.752 115.401 22.544C114.905 22.336 114.505 22.008 114.201 21.56C113.913 21.096 113.769 20.496 113.769 19.76V12.536H112.113V10.064H113.769V5.98401H116.985V10.064H119.625V12.536H116.985V18.68C117.001 19.112 117.121 19.424 117.345 19.616C117.569 19.808 117.849 19.904 118.185 19.904C118.521 19.904 118.849 19.848 119.169 19.736C119.489 19.624 119.745 19.528 119.937 19.448L120.585 21.992Z" fill="black"/>
<path d="M108.258 22.64L104.586 17.216L102.882 18.896V22.64H99.6658V5.12H102.882V15.728L107.946 10.088H111.354L106.674 15.416L111.69 22.64H108.258Z" fill="black"/>
<path d="M91.9749 22.88C90.9509 22.88 90.0309 22.712 89.2149 22.376C88.3989 22.024 87.7029 21.544 87.1269 20.936C86.5509 20.312 86.1029 19.608 85.7829 18.824C85.4789 18.04 85.3269 17.216 85.3269 16.352C85.3269 15.168 85.5909 14.088 86.1189 13.112C86.6629 12.12 87.4309 11.328 88.4229 10.736C89.4149 10.144 90.5909 9.84802 91.9509 9.84802C93.3109 9.84802 94.4789 10.144 95.4549 10.736C96.4309 11.328 97.1589 12.104 97.6389 13.064L94.4949 14.024C94.2229 13.56 93.8629 13.208 93.4149 12.968C92.9669 12.712 92.4709 12.584 91.9269 12.584C91.3189 12.584 90.7589 12.744 90.2469 13.064C89.7509 13.368 89.3589 13.808 89.0709 14.384C88.7829 14.944 88.6389 15.6 88.6389 16.352C88.6389 17.088 88.7829 17.744 89.0709 18.32C89.3749 18.88 89.7749 19.328 90.2709 19.664C90.7669 19.984 91.3189 20.144 91.9269 20.144C92.3109 20.144 92.6709 20.08 93.0069 19.952C93.3589 19.824 93.6709 19.648 93.9429 19.424C94.2149 19.2 94.4149 18.944 94.5429 18.656L97.6869 19.616C97.3989 20.24 96.9749 20.8 96.4149 21.296C95.8709 21.792 95.2229 22.184 94.4709 22.472C93.7349 22.744 92.9029 22.88 91.9749 22.88Z" fill="black"/>
<path d="M71.163 17.936V10.064H74.379V17.24C74.379 18.2 74.555 18.928 74.907 19.424C75.259 19.904 75.779 20.144 76.467 20.144C76.883 20.144 77.291 20.064 77.691 19.904C78.107 19.728 78.483 19.472 78.819 19.136C79.171 18.8 79.467 18.376 79.707 17.864V10.064H82.923V19.04C82.923 19.376 82.979 19.616 83.091 19.76C83.219 19.904 83.419 19.992 83.691 20.024V22.64C83.371 22.688 83.099 22.72 82.875 22.736C82.667 22.768 82.475 22.784 82.299 22.784C81.723 22.784 81.251 22.656 80.883 22.4C80.531 22.128 80.323 21.76 80.259 21.296L80.187 20.288C79.627 21.136 78.907 21.784 78.027 22.232C77.147 22.664 76.179 22.88 75.123 22.88C73.827 22.88 72.843 22.464 72.171 21.632C71.499 20.784 71.163 19.552 71.163 17.936Z" fill="black"/>
<path d="M54.4153 22.64V5.59998H60.6073C62.4633 5.59998 64.0153 5.98398 65.2633 6.75198C66.5113 7.50398 67.4473 8.52798 68.0713 9.82398C68.6953 11.104 69.0073 12.528 69.0073 14.096C69.0073 15.824 68.6633 17.328 67.9753 18.608C67.2873 19.888 66.3113 20.88 65.0473 21.584C63.7993 22.288 62.3193 22.64 60.6073 22.64H54.4153ZM65.6713 14.096C65.6713 12.992 65.4713 12.024 65.0713 11.192C64.6713 10.344 64.0953 9.68798 63.3433 9.22398C62.5913 8.74398 61.6793 8.50398 60.6073 8.50398H57.7273V19.736H60.6073C61.6953 19.736 62.6153 19.496 63.3673 19.016C64.1193 18.52 64.6873 17.848 65.0713 17C65.4713 16.136 65.6713 15.168 65.6713 14.096Z" fill="black"/>
</svg>
